<?xml version="1.0" encoding="UTF-8"?> <svg xmlns="http://www.w3.org/2000/svg" id="a" width="5.35in" height="1.46in" viewBox="0 0 385.13 104.9"><g><path d="M323.21,21.11c0-3.68,2.98-6.66,6.65-6.66s6.66,2.98,6.66,6.66-2.98,6.65-6.66,6.65-6.65-2.98-6.65-6.65" fill="#fff"></path><g><path d="M349.13,83.44c-.69,0-1.25,.56-1.25,1.25s.56,1.25,1.25,1.25c.65,0,1.18-.5,1.25-1.14v-.24c-.06-.63-.6-1.13-1.25-1.13Z" fill="#fff"></path><path d="M328.98,83.44c-.69,0-1.25,.56-1.25,1.25s.56,1.25,1.25,1.25,1.25-.56,1.25-1.25-.56-1.25-1.25-1.25Z" fill="#fff"></path><path d="M339.07,83.44c-.69,0-1.25,.56-1.25,1.25s.56,1.25,1.25,1.25,1.25-.56,1.25-1.25-.56-1.25-1.25-1.25Z" fill="#fff"></path><path d="M309.83,0V98.41h75.31V0h-75.31Zm5.13,56.78l.07-9.35h3.35c5.77,0,10.9-2.79,14.05-7.13l-4.36-2.66c-2.27,2.84-5.77,4.66-9.75,4.66h-3.06l-.3-.02V5.14h29.9V37.91c.01,11.58-9.37,20.97-21.06,20.97h-8.84v-2.11Zm3.03,37.28c-2.68,.22-2.8,.11-2.8,.11-.23,0-.42-.19-.42-.42v-2.24c0-.24,.19-.42,.42-.42h1.14c1.11,0,2.01-.39,2.6-1.23,.12-.15,.16-.26,.16-.38,0-.33-.27-.6-.6-.6-.14,0-.28,.05-.38,.14-.56,.6-1.17,.91-1.94,.91h-.98c-.23,0-.42-.19-.42-.42v-8.02c0-.24,.19-.42,.42-.42h6.97c.23,0,.42,.19,.42,.42v7.62c.01,2.79-2.85,4.82-4.59,4.96Zm14.98-5.81c0,.26-.26,.47-.58,.47h-7.08c-.32,0-.58-.21-.58-.47v-6.72c0-.26,.26-.47,.58-.47h7.08c.32,0,.58,.21,.58,.47v6.72Zm10.1,0c0,.26-.26,.47-.58,.47h-7.08c-.32,0-.58-.21-.58-.47v-6.72c0-.26,.26-.47,.58-.47h7.08c.32,0,.58,.21,.58,.47v6.72Zm10.08,0c0,.26-.21,.47-.46,.47h-7.35c-.26,0-.47-.21-.47-.47v-6.72c0-.26,.21-.47,.47-.47h4.6c.23,0,.42-.17,.46-.39v-2.8c0-.26,.21-.47,.47-.47h1.83c.26,0,.46,.21,.46,.47v10.37Zm12.99,0c0,.26-.21,.47-.47,.47l-1.95-.02h-2.15l-1.9,.02h-4.21c-.26,0-.47-.21-.47-.47v-6.72c0-.26,.21-.47,.47-.47h1.83c.26,0,.47,.21,.47,.47v3.96c0,.26,.21,.47,.46,.47h.52c.26,0,.46-.21,.46-.47v-3.96c0-.26,.21-.47,.47-.47h1.8c.26,0,.46,.21,.46,.47v3.96c0,.26,.21,.47,.47,.47h.52c.24,0,.43-.18,.46-.41v-4.02c0-.26,.21-.47,.46-.47h1.83c.26,0,.47,.21,.47,.47v6.72Zm4.61,0c0,.26-.21,.47-.47,.47h-1.83c-.25,0-.47-.21-.47-.47v-6.72c0-.26,.21-.47,.47-.47h1.83c.26,0,.47,.21,.47,.47v6.72Zm0-8.36c0,.26-.21,.47-.47,.47h-1.83c-.25,0-.47-.21-.47-.47v-2.01c0-.26,.21-.47,.47-.47h1.83c.26,0,.47,.21,.47,.47v2.01Zm4.58,8.36c0,.26-.21,.47-.47,.47h-1.8c-.26,0-.47-.21-.47-.47v-10.37c0-.26,.21-.47,.47-.47h1.8c.26,0,.47,.21,.47,.47v10.37Zm4.58,0c0,.26-.21,.47-.47,.47h-1.8c-.26,0-.47-.21-.47-.47v-10.37c0-.26,.21-.47,.47-.47h1.8c.26,0,.47,.21,.47,.47v10.37Zm.1-14.64h-65.04v-9.58h8.97c14.42,0,26.1-11.68,26.1-26.14V5.14h29.97V73.6Z" fill="#fff"></path><path d="M318.66,83.68c-.69,0-1.25,.56-1.25,1.25s.56,1.25,1.25,1.25,1.25-.56,1.25-1.25-.56-1.25-1.25-1.25Z" fill="#fff"></path></g><path d="M380.22,102.45c0-1.35,1.1-2.46,2.46-2.46s2.46,1.1,2.46,2.46-1.1,2.46-2.46,2.46-2.46-1.1-2.46-2.46m4.31,0c0-1.15-.83-1.98-1.86-1.98s-1.86,.83-1.86,1.98,.83,1.98,1.86,1.98,1.86-.83,1.86-1.98Zm-2.8-1.4h1.03c.67,0,1.03,.23,1.03,.82,0,.48-.27,.71-.73,.75l.75,1.22h-.53l-.72-1.2h-.31v1.2h-.52v-2.78Zm.52,1.19h.46c.31,0,.57-.04,.57-.42,0-.33-.3-.38-.56-.38h-.46v.8Z" fill="#fff"></path></g><g><path d="M132.31,89.69c0-5.27,3.79-9.06,9.93-9.06,5.57,0,9.23,3.18,9.8,7.75h-6.58c-.48-1.26-1.7-2.09-3.22-2.13-2.05,.04-3.48,1.48-3.48,3.44s1.44,3.4,3.48,3.44c1.52-.04,2.74-.87,3.22-2.13h6.58c-.57,4.57-4.22,7.75-9.8,7.75-6.14,0-9.93-3.79-9.93-9.06Z" fill="#fff"></path><path d="M155.23,89.69c0-5.27,3.79-9.06,9.93-9.06s9.88,3.79,9.88,9.06-3.79,9.06-9.88,9.06-9.93-3.79-9.93-9.06Zm13.37,0c0-2-1.44-3.4-3.44-3.44-2.05,.04-3.48,1.44-3.48,3.44s1.44,3.4,3.48,3.44c2-.04,3.44-1.44,3.44-3.44Z" fill="#fff"></path><path d="M178.62,69.27h6.44v29.13h-6.44v-29.13Z" fill="#fff"></path><path d="M188.49,91.56v-10.58h6.49v9.75c0,1.35,.96,2.39,2.22,2.39s2.31-1.05,2.31-2.39v-9.75h6.44v10.58c0,4.4-3,7.19-8.75,7.19s-8.71-2.79-8.71-7.19Z" fill="#fff"></path><path d="M237.33,87.38v11.02h-6.44v-9.8c0-1.26-.83-2.35-2.22-2.35-1.57,0-2.05,1.39-2.05,2.35v9.8h-6.49v-9.8c0-1.26-.78-2.35-2.18-2.35-1.57,0-2.09,1.39-2.09,2.35v9.8h-6.44v-17.42h6.44v2.31c1.18-1.61,2.87-2.66,5.01-2.66,2.4,0,4.14,1.31,5.01,3.22,1.09-2.05,3.05-3.22,5.66-3.22,3.87,0,5.79,2.61,5.79,6.75Z" fill="#fff"></path><path d="M260.09,89.69c0,5.1-3.7,9.06-8.4,9.06-1.83,0-3.4-.61-4.57-1.61v1.31l-6.44-.04v-29.13l6.44,.04v12.93c1.18-1,2.74-1.61,4.57-1.61,4.7,0,8.4,3.96,8.4,9.06Zm-6.45,0c0-1.96-1.48-3.44-3.44-3.44s-3.44,1.48-3.44,3.44,1.52,3.44,3.44,3.44,3.44-1.48,3.44-3.44Z" fill="#fff"></path><path d="M263.36,91.56v-10.58h6.49v9.75c0,1.35,.96,2.39,2.22,2.39s2.31-1.05,2.31-2.39v-9.75h6.44v10.58c0,4.4-3,7.19-8.75,7.19s-8.71-2.79-8.71-7.19Z" fill="#fff"></path><path d="M284.43,94.48l4.53-2.35c.96,1.52,2.09,1.7,2.74,1.7,.74,0,1.18-.26,1.18-.7,0-.39-.35-.78-1.79-1.31-1.57-.61-5.62-1.7-5.62-5.4,0-2.92,2.48-5.79,6.92-5.79,2.48,0,4.57,.87,6.1,2.13l-2.83,3.7c-.61-.57-1.66-1.22-2.79-1.22-.83,0-1.09,.35-1.09,.65,0,.39,.48,.57,1.44,.96,2.53,1,5.57,2.44,5.57,6.05,0,3.31-2.39,5.83-6.62,5.83-3.18,0-6.62-1.39-7.75-4.27Z" fill="#fff"></path></g><g><path d="M39.8,59.19c0,13.64-7.29,21.1-20.67,21.1-9.44,0-15.87-3.69-18.87-10.72l11.75-4.55c1.2,2.92,3.69,4.46,7.12,4.46,5.15,0,7.98-3.35,7.98-9.61v-3.52c-2.75,2.49-6.35,4.03-10.47,4.03C7.29,60.39,0,52.58,0,42.55S7.29,24.7,16.64,24.7c4.03,0,7.55,1.46,10.29,3.95v-3.26h12.78l.09,33.8Zm-12.61-16.64c0-3.86-3-6.78-6.78-6.78s-6.86,2.92-6.86,6.78,3,6.78,6.86,6.78,6.78-2.92,6.78-6.78Z" fill="#fff"></path><path d="M44.84,42.55c0-10.38,7.46-17.84,19.56-17.84s19.47,7.46,19.47,17.84-7.46,17.84-19.47,17.84-19.56-7.46-19.56-17.84Zm26.34,0c0-3.95-2.83-6.69-6.78-6.78-4.03,.09-6.86,2.83-6.86,6.78s2.83,6.69,6.86,6.78c3.95-.09,6.78-2.83,6.78-6.78Z" fill="#fff"></path><path d="M88.51,42.55c0-10.38,7.46-17.84,19.56-17.84s19.47,7.46,19.47,17.84-7.46,17.84-19.47,17.84-19.56-7.46-19.56-17.84Zm26.34,0c0-3.95-2.83-6.69-6.78-6.78-4.03,.09-6.86,2.83-6.86,6.78s2.83,6.69,6.86,6.78c3.95-.09,6.78-2.83,6.78-6.78Z" fill="#fff"></path><path d="M170.43,2.31V59.7l-12.7,.09v-2.57c-2.32,1.97-5.32,3.17-8.92,3.17-9.35,0-16.64-7.81-16.64-17.84s7.29-17.84,16.64-17.84c3.6,0,6.61,1.2,8.92,3.17V2.4l12.7-.09Zm-11.92,40.23c0-3.86-3.09-6.78-6.78-6.78s-6.86,2.92-6.86,6.78,3,6.78,6.86,6.78,6.78-2.92,6.78-6.78Z" fill="#fff"></path><path d="M237.8,25.39l-11.75,34.31h-13.3l-5.58-16.9-5.58,16.9h-13.3l-11.84-34.31h14.41l4.89,20.93,6.61-20.93h9.61l6.69,21.1,4.89-21.1h14.24Z" fill="#fff"></path><path d="M243.32,13.04c0-3.69,3.09-6.69,6.78-6.69s6.78,3,6.78,6.69-3.09,6.78-6.78,6.78-6.78-3.09-6.78-6.78Zm.43,12.35h12.7V59.7h-12.7V25.39Z" fill="#fff"></path><path d="M264.97,2.31h12.7V59.7h-12.7V2.31Z" fill="#fff"></path><path d="M286.1,2.31h12.7V59.7h-12.7V2.31Z" fill="#fff"></path></g></svg> 